<?xml version="1.0" standalone="no"?>
<!DOCTYPE svg PUBLIC "-//W3C//DTD SVG 20010904//EN"
 "http://www.w3.org/TR/2001/REC-SVG-20010904/DTD/svg10.dtd">
<svg version="1.0" xmlns="http://www.w3.org/2000/svg"
 width="1113.000000pt" height="992.000000pt" viewBox="0 0 1113.000000 992.000000"
 preserveAspectRatio="xMidYMid meet">
<metadata>
Created by potrace 1.15, written by Peter Selinger 2001-2017
</metadata>
<g transform="translate(0.000000,992.000000) scale(0.100000,-0.100000)"
fill="#000000" stroke="none">
<path d="M3840 9895 c-1301 -284 -2341 -1078 -2908 -2220 -289 -580 -436
-1173 -493 -1995 -16 -227 -16 -982 -1 -1220 69 -1021 303 -1779 762 -2465
517 -772 1278 -1342 2182 -1634 572 -185 1158 -261 2008 -261 744 0 1244 54
1766 190 301 78 534 165 829 310 407 200 727 426 1049 740 242 236 396 422
569 686 346 527 553 1073 666 1754 58 354 80 625 88 1120 10 648 -27 1167
-118 1625 -212 1072 -763 1976 -1585 2596 -458 347 -957 583 -1569 742 l-200
52 -1470 2 -1470 1 -105 -23z m1851 -417 c19 -6 40 -17 47 -24 7 -7 18 -11 25
-8 7 2 43 -2 80 -10 43 -9 67 -10 67 -3 0 12 161 0 174 -13 6 -6 27 -10 47
-10 54 0 300 -64 468 -122 188 -65 382 -150 546 -239 136 -75 328 -195 333
-210 2 -5 10 -9 18 -9 8 0 14 -6 14 -12 0 -7 19 -26 43 -43 110 -78 227 -179
227 -196 0 -13 7 -19 23 -19 24 0 70 -43 81 -76 8 -26 118 -124 139 -124 21 0
247 -256 247 -281 0 -6 28 -50 63 -98 376 -517 604 -1112 672 -1755 19 -188
20 -585 0 -768 -50 -477 -164 -863 -379 -1283 -178 -350 -376 -622 -622 -858
-68 -66 -124 -124 -124 -131 0 -13 -106 -109 -152 -139 -15 -10 -70 -50 -120
-90 -103 -79 -279 -198 -403 -270 -277 -160 -806 -372 -915 -366 -19 1 -55 -4
-80 -11 -50 -14 -79 -21 -190 -44 -41 -9 -97 -21 -125 -27 -181 -38 -552 -54
-755 -31 -179 19 -492 71 -635 104 -445 102 -929 332 -1307 619 -47 36 -87 59
-103 59 -15 0 -31 9 -41 25 -9 14 -22 25 -30 25 -7 0 -23 14 -36 30 -12 17
-27 30 -33 30 -6 0 -53 45 -104 100 -51 55 -97 100 -101 100 -13 0 -89 83 -90
98 0 6 -7 12 -15 12 -8 0 -15 3 -15 8 0 4 -13 21 -29 38 -105 111 -290 377
-415 594 -184 322 -344 783 -405 1170 -70 441 -62 922 20 1350 79 415 236 819
463 1192 42 70 76 131 76 137 0 6 4 11 9 11 5 0 19 19 30 43 53 105 309 402
503 582 53 50 97 95 97 101 1 13 141 127 262 213 68 48 94 61 123 61 27 0 63
16 139 62 224 135 542 277 792 353 161 49 312 85 356 85 19 0 40 5 46 11 7 7
35 10 72 7 48 -3 61 -1 61 10 0 11 14 13 60 10 33 -1 60 1 60 6 0 7 59 5 105
-4 6 -2 27 -2 47 -1 27 1 38 6 43 21 6 19 15 20 259 20 169 0 264 -4 287 -12z"/>
<path d="M5885 6223 c-115 -14 -185 -88 -185 -196 0 -124 124 -205 252 -164
58 18 64 5 20 -44 -35 -39 -106 -50 -163 -26 l-36 15 -32 -65 -31 -64 37 -17
c27 -12 66 -17 138 -17 86 0 106 3 145 24 102 53 151 131 158 254 5 91 -9 152
-50 208 -46 64 -156 104 -253 92z"/>
<path d="M6401 6219 c-159 -31 -221 -202 -112 -310 55 -56 129 -71 206 -44 21
8 41 12 43 10 9 -9 -32 -66 -58 -80 -35 -18 -106 -19 -140 -2 -24 12 -26 11
-58 -47 -32 -57 -33 -61 -16 -73 48 -35 175 -44 261 -18 107 32 176 112 195
227 25 142 -22 261 -122 309 -62 31 -134 41 -199 28z"/>
<path d="M3670 6145 l0 -65 45 0 45 0 0 -215 0 -215 95 0 95 0 0 280 0 280
-140 0 -140 0 0 -65z"/>
<path d="M4010 6145 l0 -65 45 0 45 0 0 -215 0 -215 95 0 95 0 0 280 0 280
-140 0 -140 0 0 -65z"/>
<path d="M4350 6145 l0 -65 45 0 45 0 0 -215 0 -215 95 0 95 0 0 280 0 280
-140 0 -140 0 0 -65z"/>
<path d="M4710 6145 l0 -65 102 0 102 0 -42 -43 c-40 -41 -42 -45 -42 -105 l0
-62 53 0 c59 0 91 -17 85 -45 -8 -46 -109 -56 -194 -20 l-35 15 -30 -65 c-16
-36 -29 -67 -29 -69 0 -2 24 -13 53 -23 37 -13 81 -18 157 -18 90 0 112 3 153
24 26 12 60 39 75 59 23 30 27 45 27 103 0 61 -3 71 -30 100 -16 17 -45 38
-64 46 l-34 14 52 53 c49 50 51 53 51 109 l0 57 -205 0 -205 0 0 -65z"/>
<path d="M6780 6145 l0 -65 100 0 c55 0 100 -4 100 -8 0 -4 -18 -26 -40 -47
-38 -37 -40 -43 -40 -97 l0 -58 58 0 c32 0 63 -5 70 -12 32 -32 -6 -78 -64
-78 -18 0 -59 8 -93 19 l-60 19 -31 -66 c-17 -36 -29 -66 -28 -67 2 -1 26 -11
53 -21 71 -27 255 -27 305 0 78 41 112 93 112 167 0 65 -26 107 -85 138 l-48
24 50 51 c49 50 51 54 51 109 l0 57 -205 0 -205 0 0 -65z"/>
<path d="M5170 6085 c0 -3 32 -48 71 -101 38 -52 72 -101 75 -109 3 -8 -31
-61 -76 -119 l-82 -106 96 0 95 0 32 45 c18 25 36 45 40 45 5 0 20 -20 35 -45
l26 -45 100 0 c77 0 98 3 92 13 -4 6 -39 55 -77 107 -39 52 -70 100 -70 106 0
6 34 56 77 112 l77 102 -93 0 -93 0 -30 -45 c-16 -25 -33 -45 -36 -45 -3 0
-19 20 -37 45 l-32 45 -95 0 c-52 0 -95 -2 -95 -5z"/>
</g>
</svg>
